<svg xmlns="http://www.w3.org/2000/svg" width="32" height="32" fill="currentColor" viewBox="0 0 32 32">
  <path d="M18.707 2.293a1 1 0 00-1.414 0l-4 4a1 1 0 001.414 1.414L17 5.414V14a1 1 0 102 0V5.414l2.293 2.293a1 1 0 101.414-1.414l-4-4z"/>
  <path d="M10.474 7.83l.127 3.17h4.4v2h-4.32l.28 7H23.28l2.334-7H21v-2h4.613a2 2 0 011.897 2.633l-2.333 7A2 2 0 0123.279 22H10.961a2 2 0 01-1.998-1.92L8.526 9.17l-2.92-1.25a1 1 0 01.788-1.84l4.08 1.75z"/>
  <path fill-rule="evenodd" d="M15 26c0-.35-.06-.687-.17-1h3.341a3 3 0 102.83-2h-9a3 3 0 103 3zm-2 0a1 1 0 11-2 0 1 1 0 012 0zm7 0a1 1 0 112 0 1 1 0 01-2 0z" clip-rule="evenodd"/>
</svg>
