<svg xmlns="http://www.w3.org/2000/svg" width="32" height="32" fill="currentColor" viewBox="0 0 32 32"><path fill-rule="evenodd" d="M13.458 13H5.601L5.5 10.46l-.025-.63-.58-.25-3.5-1.5A1 1 0 00.606 9.92l2.92 1.251.115 2.87.322 8.04A2 2 0 005.96 24H18.28a2 2 0 001.898-1.368l.937-2.81a9.926 9.926 0 01-1.918-.571L18.279 22H5.961l-.28-7h8.657a9.948 9.948 0 01-.88-2zM7 29a1 1 0 100-2 1 1 0 000 2zm2.83-2A3 3 0 117 25h9a3 3 0 11-2.829 2H9.83zM16 27a1 1 0 100 2 1 1 0 000-2zM23 16a6 6 0 100-12 6 6 0 000 12zm0 2a8 8 0 100-16 8 8 0 000 16z" clip-rule="evenodd"/><path fill-rule="evenodd" d="M20.88 6.465l-1.415 1.414L21.586 10l-2.121 2.121 1.414 1.415L23 11.414l2.122 2.122 1.414-1.415-2.121-2.12 2.12-2.122-1.413-1.414L23 8.585l-2.12-2.12z" clip-rule="evenodd"/></svg>