<svg xmlns="http://www.w3.org/2000/svg" width="86" height="32" fill="currentColor" viewBox="0 0 86 32"><path fill-rule="evenodd" d="M12.38 22.961H5.997a4.823 4.823 0 01-1.27-9.477 4.788 4.788 0 01-.338-1.776 4.822 4.822 0 013.553-4.654 4.788 4.788 0 01-.338-1.777A4.823 4.823 0 0112.428.454h1.607a4.823 4.823 0 014.485 6.6 4.822 4.822 0 013.215 6.43 4.822 4.822 0 010 0 4.81 4.81 0 00.338-1.776c0-1.289-.504-2.46-1.327-3.325a3.6 3.6 0 012.132-.695h1.206a3.617 3.617 0 013.364 4.95 3.619 3.619 0 012.411 4.823 3.619 3.619 0 01-.952 7.108h-4.374V30h20.864a4.412 4.412 0 01-1.604-3.823h-4.84V9.392c0-.94.763-1.704 1.703-1.704h19.101c.94 0 1.703.763 1.703 1.704v3.12h6.834l2.742 6.267a.851.851 0 01.071.341v5.354c0 .94-.763 1.703-1.703 1.703h-.726A4.412 4.412 0 0167.075 30H85a1 1 0 110 2H1a1 1 0 110-2h11.636a.85.85 0 01-.255-.608v-6.43zM9.466 7.816a1.703 1.703 0 01-1.076.881 3.122 3.122 0 00-2.08 4.16 1.703 1.703 0 01-1.136 2.27 3.122 3.122 0 00.823 6.131h6.383v-1.16L8.61 16.33a.852.852 0 111.205-1.204l2.566 2.565v-3.218l-2.163-2.162a.852.852 0 011.205-1.205l.957.958V7.69a.852.852 0 111.704 0v4.374l.957-.958a.852.852 0 011.205 1.205l-2.162 2.162v3.218l2.565-2.565a.852.852 0 011.205 1.204l-3.77 3.77v1.159h6.382a3.12 3.12 0 00.822-6.13 1.704 1.704 0 01-1.136-2.271 3.122 3.122 0 00-2.08-4.16 1.703 1.703 0 01-1.135-2.271 3.12 3.12 0 00-2.902-4.268h-1.607a3.12 3.12 0 00-2.902 4.268c.178.45.157.956-.06 1.39zM13.829 30a.85.85 0 00.255-.608v-6.43h.963a3.614 3.614 0 003.008 1.607h4.775V30H13.83zm26.828-5.527V9.392h19.1v15.081h-7.563a4.514 4.514 0 00-3.997-2.411c-1.735 0-3.24.977-3.997 2.411h-3.544zm27.507 0h1.24V19.3l-2.224-5.084h-5.623v8.876a4.42 4.42 0 016.607 1.383zm-8.293 1.704H52.6A4.412 4.412 0 0150.996 30h10.479a4.412 4.412 0 01-1.604-3.823zm7.121.401a2.718 2.718 0 11-5.435 0 2.718 2.718 0 015.435 0zm-18.796 2.718a2.718 2.718 0 100-5.435 2.718 2.718 0 000 5.435z" clip-rule="evenodd"/></svg>