<svg xmlns="http://www.w3.org/2000/svg" width="32" height="32" fill="currentColor" viewBox="0 0 32 32">
  <path fill-rule="evenodd" d="M13.458 13H5.6l-.102-2.54-.025-.63-.58-.25-3.5-1.5a1 1 0 10-.788 1.84l2.92 1.25.115 2.87.321 8.04A2 2 0 005.961 24h12.318a2 2 0 001.897-1.367l.937-2.81a9.928 9.928 0 01-1.918-.572L18.28 22H5.961l-.28-7h8.657a9.945 9.945 0 01-.88-2zM7 29a1 1 0 100-2 1 1 0 000 2zm2.83-2A3 3 0 117 25h9a3 3 0 11-2.83 2H9.83zM16 27a1 1 0 100 2 1 1 0 000-2zM23 18a8 8 0 100-16 8 8 0 000 16zm-1-9V6h2v3h3v2h-3v3h-2v-3h-3V9h3z" clip-rule="evenodd"/>
</svg>
