<svg xmlns="http://www.w3.org/2000/svg" width="29" height="21" fill="currentColor" viewBox="0 0 29 21"><path fill-rule="evenodd" d="M1.424 14.953V1.424h17.09v13.529h-6.835a3.915 3.915 0 00-3.49-2.136c-1.523 0-2.84.868-3.49 2.136H1.425zm2.865 1.425H0V1.424C0 .638.638 0 1.424 0h17.09c.786 0 1.424.638 1.424 1.424v2.848h6.052l2.433 5.56a.713.713 0 01.06.268V14.955c-.001.786-.639 1.423-1.425 1.423h-.727a3.916 3.916 0 11-7.8 0H12.089a3.916 3.916 0 11-7.8 0zm4.467-2.072a2.496 2.496 0 00-3.058 2.428 2.492 2.492 0 104.959-.356h-.001a2.495 2.495 0 00-1.9-2.072zm11.182-.593a3.916 3.916 0 015.981 1.241h1.14v-4.687l-2-4.57h-5.121v8.015zm4.236 1.24a2.492 2.492 0 10.723 1.424 2.486 2.486 0 00-.723-1.423z" clip-rule="evenodd"/></svg>
