<svg xmlns="http://www.w3.org/2000/svg" width="24" height="24" fill="currentColor" viewBox="0 0 24 24">
  <path d="M12 2.983c2.939 0 3.284.013 4.445.065 1.075.048 1.655.227 2.044.38.515.2.882.437 1.267.82.384.385.624.752.82 1.267.149.389.332.97.38 2.044.053 1.162.066 1.506.066 4.445 0 2.94-.013 3.284-.066 4.446-.048 1.074-.227 1.655-.38 2.044-.2.515-.436.881-.82 1.266a3.36 3.36 0 01-1.267.82c-.389.15-.97.333-2.044.38-1.161.053-1.506.066-4.445.066s-3.284-.013-4.445-.065c-1.075-.048-1.655-.227-2.044-.38a3.414 3.414 0 01-1.266-.821 3.361 3.361 0 01-.821-1.267c-.149-.388-.332-.969-.38-2.043-.053-1.162-.066-1.507-.066-4.446 0-2.938.013-3.283.066-4.445.048-1.074.227-1.655.38-2.044.2-.515.436-.882.82-1.266a3.36 3.36 0 011.267-.821c.389-.149.97-.332 2.044-.38 1.161-.057 1.51-.065 4.445-.065zM12 1c-2.987 0-3.362.013-4.537.065-1.17.053-1.97.24-2.668.511-.725.28-1.336.66-1.948 1.271a5.457 5.457 0 00-1.27 1.948c-.271.698-.46 1.498-.512 2.672C1.013 8.637 1 9.013 1 12s.013 3.362.065 4.537c.053 1.17.24 1.97.511 2.673.28.724.66 1.336 1.271 1.947a5.455 5.455 0 001.948 1.27c.698.272 1.498.46 2.672.512 1.175.052 1.546.065 4.537.065 2.992 0 3.363-.013 4.537-.065 1.17-.052 1.97-.24 2.673-.511a5.36 5.36 0 001.948-1.27 5.456 5.456 0 001.27-1.948c.271-.7.459-1.498.511-2.673.053-1.175.066-1.546.066-4.537 0-2.991-.013-3.362-.066-4.537-.052-1.17-.24-1.97-.51-2.673a5.363 5.363 0 00-1.271-1.947 5.457 5.457 0 00-1.948-1.271c-.699-.27-1.498-.458-2.672-.51C15.361 1.012 14.986 1 12 1z"/>
  <path d="M12 6.354a5.652 5.652 0 10.002 11.303A5.652 5.652 0 0012 6.354zm0 9.314a3.668 3.668 0 110-7.335 3.668 3.668 0 010 7.335zM18.804 7.06a1.319 1.319 0 10-1.865-1.865 1.319 1.319 0 001.865 1.865z"/>
</svg>
